<?xml version="1.0" encoding="utf-8"?>
<!-- Generator: Adobe Illustrator 18.0.0, SVG Export Plug-In . SVG Version: 6.00 Build 0)  -->
<!DOCTYPE svg PUBLIC "-//W3C//DTD SVG 1.1//EN" "http://www.w3.org/Graphics/SVG/1.1/DTD/svg11.dtd">
<svg version="1.1" id="Layer_1" xmlns="http://www.w3.org/2000/svg" xmlns:xlink="http://www.w3.org/1999/xlink" x="0px" y="0px"
	 viewBox="0 0 550 275" enable-background="new 0 0 550 275" xml:space="preserve">
<rect x="300" y="25" fill="#8FC7ED" stroke="#294270" stroke-width="2" stroke-miterlimit="10" width="25" height="25"/>
<rect x="325" y="25" fill="#8FC7ED" stroke="#294270" stroke-width="2" stroke-miterlimit="10" width="25" height="25"/>
<rect x="300" y="50" fill="#8FC7ED" stroke="#294270" stroke-width="2" stroke-miterlimit="10" width="25" height="25"/>
<rect x="325" y="50" fill="#006CA9" stroke="#294270" stroke-width="2" stroke-miterlimit="10" width="25" height="25"/>
<rect x="300" y="75" fill="#8FC7ED" stroke="#294270" stroke-width="2" stroke-miterlimit="10" width="25" height="25"/>
<rect x="325" y="75" fill="#8FC7ED" stroke="#294270" stroke-width="2" stroke-miterlimit="10" width="25" height="25"/>
<rect x="300" y="100" fill="#006CA9" stroke="#294270" stroke-width="2" stroke-miterlimit="10" width="25" height="25"/>
<rect x="325" y="100" fill="#006CA9" stroke="#294270" stroke-width="2" stroke-miterlimit="10" width="25" height="25"/>
<rect x="300" y="125" fill="#006CA9" stroke="#294270" stroke-width="2" stroke-miterlimit="10" width="25" height="25"/>
<rect x="325" y="125" fill="#006CA9" stroke="#294270" stroke-width="2" stroke-miterlimit="10" width="25" height="25"/>
<rect x="300" y="150" fill="#006CA9" stroke="#294270" stroke-width="2" stroke-miterlimit="10" width="25" height="25"/>
<rect x="325" y="150" fill="#006CA9" stroke="#294270" stroke-width="2" stroke-miterlimit="10" width="25" height="25"/>
<rect x="300" y="175" fill="#006CA9" stroke="#294270" stroke-width="2" stroke-miterlimit="10" width="25" height="25"/>
<rect x="325" y="175" fill="#8FC7ED" stroke="#294270" stroke-width="2" stroke-miterlimit="10" width="25" height="25"/>
<rect x="300" y="200" fill="#006CA9" stroke="#294270" stroke-width="2" stroke-miterlimit="10" width="25" height="25"/>
<rect x="325" y="200" fill="#006CA9" stroke="#294270" stroke-width="2" stroke-miterlimit="10" width="25" height="25"/>
<rect x="350" y="25" fill="#8FC7ED" stroke="#294270" stroke-width="2" stroke-miterlimit="10" width="25" height="25"/>
<rect x="375" y="25" fill="#006CA9" stroke="#294270" stroke-width="2" stroke-miterlimit="10" width="25" height="25"/>
<rect x="350" y="50" fill="#006CA9" stroke="#294270" stroke-width="2" stroke-miterlimit="10" width="25" height="25"/>
<rect x="375" y="50" fill="#006CA9" stroke="#294270" stroke-width="2" stroke-miterlimit="10" width="25" height="25"/>
<rect x="350" y="75" fill="#8FC7ED" stroke="#294270" stroke-width="2" stroke-miterlimit="10" width="25" height="25"/>
<rect x="375" y="75" fill="#8FC7ED" stroke="#294270" stroke-width="2" stroke-miterlimit="10" width="25" height="25"/>
<rect x="350" y="100" fill="#006CA9" stroke="#294270" stroke-width="2" stroke-miterlimit="10" width="25" height="25"/>
<rect x="375" y="100" fill="#006CA9" stroke="#294270" stroke-width="2" stroke-miterlimit="10" width="25" height="25"/>
<rect x="350" y="125" fill="#8FC7ED" stroke="#294270" stroke-width="2" stroke-miterlimit="10" width="25" height="25"/>
<rect x="375" y="125" fill="#8FC7ED" stroke="#294270" stroke-width="2" stroke-miterlimit="10" width="25" height="25"/>
<rect x="350" y="150" fill="#8FC7ED" stroke="#294270" stroke-width="2" stroke-miterlimit="10" width="25" height="25"/>
<rect x="375" y="150" fill="#006CA9" stroke="#294270" stroke-width="2" stroke-miterlimit="10" width="25" height="25"/>
<rect x="350" y="175" fill="#8FC7ED" stroke="#294270" stroke-width="2" stroke-miterlimit="10" width="25" height="25"/>
<rect x="375" y="175" fill="#8FC7ED" stroke="#294270" stroke-width="2" stroke-miterlimit="10" width="25" height="25"/>
<rect x="350" y="200" fill="#8FC7ED" stroke="#294270" stroke-width="2" stroke-miterlimit="10" width="25" height="25"/>
<rect x="375" y="200" fill="#006CA9" stroke="#294270" stroke-width="2" stroke-miterlimit="10" width="25" height="25"/>
<rect x="400" y="25" fill="#006CA9" stroke="#294270" stroke-width="2" stroke-miterlimit="10" width="25" height="25"/>
<rect x="425" y="25" fill="#006CA9" stroke="#294270" stroke-width="2" stroke-miterlimit="10" width="25" height="25"/>
<rect x="400" y="50" fill="#8FC7ED" stroke="#294270" stroke-width="2" stroke-miterlimit="10" width="25" height="25"/>
<rect x="425" y="50" fill="#006CA9" stroke="#294270" stroke-width="2" stroke-miterlimit="10" width="25" height="25"/>
<rect x="400" y="75" fill="#8FC7ED" stroke="#294270" stroke-width="2" stroke-miterlimit="10" width="25" height="25"/>
<rect x="425" y="75" fill="#006CA9" stroke="#294270" stroke-width="2" stroke-miterlimit="10" width="25" height="25"/>
<rect x="400" y="100" fill="#8FC7ED" stroke="#294270" stroke-width="2" stroke-miterlimit="10" width="25" height="25"/>
<rect x="425" y="100" fill="#006CA9" stroke="#294270" stroke-width="2" stroke-miterlimit="10" width="25" height="25"/>
<rect x="400" y="125" fill="#8FC7ED" stroke="#294270" stroke-width="2" stroke-miterlimit="10" width="25" height="25"/>
<rect x="425" y="125" fill="#006CA9" stroke="#294270" stroke-width="2" stroke-miterlimit="10" width="25" height="25"/>
<rect x="400" y="150" fill="#006CA9" stroke="#294270" stroke-width="2" stroke-miterlimit="10" width="25" height="25"/>
<rect x="425" y="150" fill="#006CA9" stroke="#294270" stroke-width="2" stroke-miterlimit="10" width="25" height="25"/>
<rect x="400" y="175" fill="#8FC7ED" stroke="#294270" stroke-width="2" stroke-miterlimit="10" width="25" height="25"/>
<rect x="425" y="175" fill="#8FC7ED" stroke="#294270" stroke-width="2" stroke-miterlimit="10" width="25" height="25"/>
<rect x="400" y="200" fill="#8FC7ED" stroke="#294270" stroke-width="2" stroke-miterlimit="10" width="25" height="25"/>
<rect x="425" y="200" fill="#006CA9" stroke="#294270" stroke-width="2" stroke-miterlimit="10" width="25" height="25"/>
<rect x="450" y="25" fill="#006CA9" stroke="#294270" stroke-width="2" stroke-miterlimit="10" width="25" height="25"/>
<rect x="450" y="50" fill="#8FC7ED" stroke="#294270" stroke-width="2" stroke-miterlimit="10" width="25" height="25"/>
<rect x="450" y="75" fill="#8FC7ED" stroke="#294270" stroke-width="2" stroke-miterlimit="10" width="25" height="25"/>
<rect x="450" y="100" fill="#8FC7ED" stroke="#294270" stroke-width="2" stroke-miterlimit="10" width="25" height="25"/>
<rect x="450" y="125" fill="#8FC7ED" stroke="#294270" stroke-width="2" stroke-miterlimit="10" width="25" height="25"/>
<rect x="450" y="150" fill="#8FC7ED" stroke="#294270" stroke-width="2" stroke-miterlimit="10" width="25" height="25"/>
<rect x="450" y="175" fill="#8FC7ED" stroke="#294270" stroke-width="2" stroke-miterlimit="10" width="25" height="25"/>
<rect x="450" y="200" fill="#006CA9" stroke="#294270" stroke-width="2" stroke-miterlimit="10" width="25" height="25"/>
<text transform="matrix(1 0 0 1 308.3105 45)" fill="#294270" font-family="'Roboto-Bold'" font-size="24">t</text>
<text transform="matrix(1 0 0 1 305.7266 70.0001)" fill="#294270" font-family="'Roboto-Bold'" font-size="24">o</text>
<text transform="matrix(1 0 0 1 305.7266 92.5002)" fill="#294270" font-family="'Roboto-Bold'" font-size="24">p</text>
<text transform="matrix(1 0 0 1 334.2949 95.0001)" fill="#294270" font-family="'Roboto-Bold'" font-size="24">i</text>
<text transform="matrix(1 0 0 1 456.0547 69.9999)" fill="#294270" font-family="'Roboto-Bold'" font-size="24">a</text>
<text transform="matrix(1 0 0 1 406.3711 70.0001)" fill="#294270" font-family="'Roboto-Bold'" font-size="24">v</text>
<text transform="matrix(1 0 0 1 406.0547 95.0001)" fill="#294270" font-family="'Roboto-Bold'" font-size="24">a</text>
<text transform="matrix(1 0 0 1 381.3711 95.0001)" fill="#294270" font-family="'Roboto-Bold'" font-size="24">z</text>
<text transform="matrix(1 0 0 1 356.3711 95.0001)" fill="#294270" font-family="'Roboto-Bold'" font-size="24">z</text>
<rect x="475" y="25" fill="#006CA9" stroke="#294270" stroke-width="2" stroke-miterlimit="10" width="25" height="25"/>
<rect x="475" y="75" fill="#006CA9" stroke="#294270" stroke-width="2" stroke-miterlimit="10" width="25" height="25"/>
<rect x="475" y="100" fill="#006CA9" stroke="#294270" stroke-width="2" stroke-miterlimit="10" width="25" height="25"/>
<rect x="475" y="125" fill="#006CA9" stroke="#294270" stroke-width="2" stroke-miterlimit="10" width="25" height="25"/>
<rect x="475" y="150" fill="#006CA9" stroke="#294270" stroke-width="2" stroke-miterlimit="10" width="25" height="25"/>
<rect x="475" y="175" fill="#006CA9" stroke="#294270" stroke-width="2" stroke-miterlimit="10" width="25" height="25"/>
<rect x="475" y="200" fill="#006CA9" stroke="#294270" stroke-width="2" stroke-miterlimit="10" width="25" height="25"/>
<rect x="500" y="25" fill="#006CA9" stroke="#294270" stroke-width="2" stroke-miterlimit="10" width="25" height="25"/>
<rect x="500" y="50.2" fill="#8FC7ED" stroke="#294270" stroke-width="2" stroke-miterlimit="10" width="25" height="25"/>
<rect x="500" y="75" fill="#006CA9" stroke="#294270" stroke-width="2" stroke-miterlimit="10" width="25" height="25"/>
<rect x="500" y="100" fill="#006CA9" stroke="#294270" stroke-width="2" stroke-miterlimit="10" width="25" height="25"/>
<rect x="500" y="125" fill="#006CA9" stroke="#294270" stroke-width="2" stroke-miterlimit="10" width="25" height="25"/>
<rect x="500" y="150" fill="#8FC7ED" stroke="#294270" stroke-width="2" stroke-miterlimit="10" width="25" height="25"/>
<rect x="500" y="175" fill="#8FC7ED" stroke="#294270" stroke-width="2" stroke-miterlimit="10" width="25" height="25"/>
<rect x="500" y="200" fill="#8FC7ED" stroke="#294270" stroke-width="2" stroke-miterlimit="10" width="25" height="25"/>
<rect x="475" y="50" fill="#8FC7ED" stroke="#294270" stroke-width="2" stroke-miterlimit="10" width="25" height="25"/>
<text transform="matrix(1 0 0 1 484.2949 69.9999)" fill="#294270" font-family="'Roboto-Bold'" font-size="24">i</text>
<text transform="matrix(1 0 0 1 508.2988 70.0001)" fill="#294270" font-family="'Roboto-Bold'" font-size="24">r</text>
<text transform="matrix(1 0 0 1 458.2109 95.0002)" fill="#294270" font-family="'Roboto-Bold'" font-size="24">f</text>
<text transform="matrix(1 0 0 1 358.3105 195.0001)" fill="#294270" font-family="'Roboto-Bold'" font-size="24">t</text>
<text transform="matrix(1 0 0 1 356.0547 170.0001)" fill="#294270" font-family="'Roboto-Bold'" font-size="24">a</text>
<text transform="matrix(1 0 0 1 355.7266 145.0001)" fill="#294270" font-family="'Roboto-Bold'" font-size="24">h</text>
<text transform="matrix(1 0 0 1 384.2949 145.0001)" fill="#294270" font-family="'Roboto-Bold'" font-size="24">i</text>
<text transform="matrix(1 0 0 1 408.3105 145.0001)" fill="#294270" font-family="'Roboto-Bold'" font-size="24">t</text>
<text transform="matrix(1 0 0 1 406.3125 120.0001)" fill="#294270" font-family="'Roboto-Bold'" font-size="24">s</text>
<text transform="matrix(1 0 0 1 405.7266 220.0001)" fill="#294270" font-family="'Roboto-Bold'" font-size="24">o</text>
<text transform="matrix(1 0 0 1 456.1484 145.0001)" fill="#294270" font-family="'Roboto-Bold'" font-size="24">e</text>
<text transform="matrix(1 0 0 1 456.2891 170.0001)" fill="#294270" font-family="'Roboto-Bold'" font-size="24">c</text>
<text transform="matrix(1 0 0 1 458.3105 195.0001)" fill="#294270" font-family="'Roboto-Bold'" font-size="24">t</text>
<text transform="matrix(1 0 0 1 431.1484 195.0001)" fill="#294270" font-family="'Roboto-Bold'" font-size="24">e</text>
<text transform="matrix(1 0 0 1 406.1484 195.0001)" fill="#294270" font-family="'Roboto-Bold'" font-size="24">e</text>
<text transform="matrix(1 0 0 1 383.2988 195.0001)" fill="#294270" font-family="'Roboto-Bold'" font-size="24">r</text>
<text transform="matrix(1 0 0 1 331.3125 195.0001)" fill="#294270" font-family="'Roboto-Bold'" font-size="24">s</text>
<text transform="matrix(1 0 0 1 356.1484 220.0001)" fill="#294270" font-family="'Roboto-Bold'" font-size="24">e</text>
<text transform="matrix(1 0 0 1 506.0723 220.0001)" fill="#294270" font-family="'Roboto-Bold'" font-size="24">k</text>
<text transform="matrix(1 0 0 1 509.2949 195.0001)" fill="#294270" font-family="'Roboto-Bold'" font-size="24">i</text>
<text transform="matrix(1 0 0 1 505.7266 170.0001)" fill="#294270" font-family="'Roboto-Bold'" font-size="24">b</text>
<text transform="matrix(1 0 0 1 458.2109 120.0001)" fill="#294270" font-family="'Roboto-Bold'" font-size="24">f</text>
<rect x="300" y="225" fill="#006CA9" stroke="#294270" stroke-width="2" stroke-miterlimit="10" width="25" height="25"/>
<rect x="325" y="225" fill="#006CA9" stroke="#294270" stroke-width="2" stroke-miterlimit="10" width="25" height="25"/>
<rect x="350" y="225" fill="#006CA9" stroke="#294270" stroke-width="2" stroke-miterlimit="10" width="25" height="25"/>
<rect x="375" y="225" fill="#006CA9" stroke="#294270" stroke-width="2" stroke-miterlimit="10" width="25" height="25"/>
<rect x="400" y="225" fill="#8FC7ED" stroke="#294270" stroke-width="2" stroke-miterlimit="10" width="25" height="25"/>
<rect x="425" y="225" fill="#8FC7ED" stroke="#294270" stroke-width="2" stroke-miterlimit="10" width="25" height="25"/>
<rect x="450" y="225" fill="#8FC7ED" stroke="#294270" stroke-width="2" stroke-miterlimit="10" width="25" height="25"/>
<rect x="475" y="225" fill="#8FC7ED" stroke="#294270" stroke-width="2" stroke-miterlimit="10" width="25" height="25"/>
<rect x="500" y="225" fill="#8FC7ED" stroke="#294270" stroke-width="2" stroke-miterlimit="10" width="25" height="25"/>
<text transform="matrix(1 0 0 1 405.7266 245.0001)" fill="#294270" font-family="'Roboto-Bold'" font-size="24">d</text>
<text transform="matrix(1 0 0 1 433.2988 245.0001)" fill="#294270" font-family="'Roboto-Bold'" font-size="24">r</text>
<text transform="matrix(1 0 0 1 506.1484 245.0001)" fill="#294270" font-family="'Roboto-Bold'" font-size="24">e</text>
<text transform="matrix(1 0 0 1 459.2949 245.0001)" fill="#294270" font-family="'Roboto-Bold'" font-size="24">i</text>
<text transform="matrix(1 0 0 1 481.3711 245.0001)" fill="#294270" font-family="'Roboto-Bold'" font-size="24">v</text>
<text transform="matrix(1 0 0 1 355.7266 42.5001)" fill="#294270" font-family="'Roboto-Bold'" font-size="24">p</text>
<text transform="matrix(1 0 0 1 334.2949 47.5001)" fill="#294270" font-family="'Roboto-Bold'" font-size="24">i</text>
<rect x="25" y="25" fill="#8FC7ED" stroke="#294270" stroke-width="2" stroke-miterlimit="10" width="25" height="25"/>
<rect x="50" y="25" fill="#8FC7ED" stroke="#294270" stroke-width="2" stroke-miterlimit="10" width="25" height="25"/>
<rect x="25" y="50" fill="#8FC7ED" stroke="#294270" stroke-width="2" stroke-miterlimit="10" width="25" height="25"/>
<rect x="50" y="50" fill="#006CA9" stroke="#294270" stroke-width="2" stroke-miterlimit="10" width="25" height="25"/>
<rect x="25" y="75" fill="#8FC7ED" stroke="#294270" stroke-width="2" stroke-miterlimit="10" width="25" height="25"/>
<rect x="50" y="75" fill="#8FC7ED" stroke="#294270" stroke-width="2" stroke-miterlimit="10" width="25" height="25"/>
<rect x="25" y="100" fill="#006CA9" stroke="#294270" stroke-width="2" stroke-miterlimit="10" width="25" height="25"/>
<rect x="50" y="100" fill="#006CA9" stroke="#294270" stroke-width="2" stroke-miterlimit="10" width="25" height="25"/>
<rect x="25" y="125" fill="#006CA9" stroke="#294270" stroke-width="2" stroke-miterlimit="10" width="25" height="25"/>
<rect x="50" y="125" fill="#006CA9" stroke="#294270" stroke-width="2" stroke-miterlimit="10" width="25" height="25"/>
<rect x="25" y="150" fill="#006CA9" stroke="#294270" stroke-width="2" stroke-miterlimit="10" width="25" height="25"/>
<rect x="50" y="150" fill="#006CA9" stroke="#294270" stroke-width="2" stroke-miterlimit="10" width="25" height="25"/>
<rect x="25" y="175" fill="#006CA9" stroke="#294270" stroke-width="2" stroke-miterlimit="10" width="25" height="25"/>
<rect x="50" y="175" fill="#8FC7ED" stroke="#294270" stroke-width="2" stroke-miterlimit="10" width="25" height="25"/>
<rect x="25" y="200" fill="#006CA9" stroke="#294270" stroke-width="2" stroke-miterlimit="10" width="25" height="25"/>
<rect x="50" y="200" fill="#006CA9" stroke="#294270" stroke-width="2" stroke-miterlimit="10" width="25" height="25"/>
<rect x="75" y="25" fill="#8FC7ED" stroke="#294270" stroke-width="2" stroke-miterlimit="10" width="25" height="25"/>
<rect x="100" y="25" fill="#006CA9" stroke="#294270" stroke-width="2" stroke-miterlimit="10" width="25" height="25"/>
<rect x="75" y="50" fill="#006CA9" stroke="#294270" stroke-width="2" stroke-miterlimit="10" width="25" height="25"/>
<rect x="100" y="50" fill="#006CA9" stroke="#294270" stroke-width="2" stroke-miterlimit="10" width="25" height="25"/>
<rect x="75" y="75" fill="#8FC7ED" stroke="#294270" stroke-width="2" stroke-miterlimit="10" width="25" height="25"/>
<rect x="100" y="75" fill="#8FC7ED" stroke="#294270" stroke-width="2" stroke-miterlimit="10" width="25" height="25"/>
<rect x="75" y="100" fill="#006CA9" stroke="#294270" stroke-width="2" stroke-miterlimit="10" width="25" height="25"/>
<rect x="100" y="100" fill="#006CA9" stroke="#294270" stroke-width="2" stroke-miterlimit="10" width="25" height="25"/>
<rect x="75" y="125" fill="#8FC7ED" stroke="#294270" stroke-width="2" stroke-miterlimit="10" width="25" height="25"/>
<rect x="100" y="125" fill="#8FC7ED" stroke="#294270" stroke-width="2" stroke-miterlimit="10" width="25" height="25"/>
<rect x="75" y="150" fill="#8FC7ED" stroke="#294270" stroke-width="2" stroke-miterlimit="10" width="25" height="25"/>
<rect x="100" y="150" fill="#006CA9" stroke="#294270" stroke-width="2" stroke-miterlimit="10" width="25" height="25"/>
<rect x="75" y="175" fill="#8FC7ED" stroke="#294270" stroke-width="2" stroke-miterlimit="10" width="25" height="25"/>
<rect x="100" y="175" fill="#8FC7ED" stroke="#294270" stroke-width="2" stroke-miterlimit="10" width="25" height="25"/>
<rect x="75" y="200" fill="#8FC7ED" stroke="#294270" stroke-width="2" stroke-miterlimit="10" width="25" height="25"/>
<rect x="100" y="200" fill="#006CA9" stroke="#294270" stroke-width="2" stroke-miterlimit="10" width="25" height="25"/>
<rect x="125" y="25" fill="#006CA9" stroke="#294270" stroke-width="2" stroke-miterlimit="10" width="25" height="25"/>
<rect x="150" y="25" fill="#006CA9" stroke="#294270" stroke-width="2" stroke-miterlimit="10" width="25" height="25"/>
<rect x="125" y="50" fill="#8FC7ED" stroke="#294270" stroke-width="2" stroke-miterlimit="10" width="25" height="25"/>
<rect x="150" y="50" fill="#006CA9" stroke="#294270" stroke-width="2" stroke-miterlimit="10" width="25" height="25"/>
<rect x="125" y="75" fill="#8FC7ED" stroke="#294270" stroke-width="2" stroke-miterlimit="10" width="25" height="25"/>
<rect x="150" y="75" fill="#006CA9" stroke="#294270" stroke-width="2" stroke-miterlimit="10" width="25" height="25"/>
<rect x="125" y="100" fill="#8FC7ED" stroke="#294270" stroke-width="2" stroke-miterlimit="10" width="25" height="25"/>
<rect x="150" y="100" fill="#006CA9" stroke="#294270" stroke-width="2" stroke-miterlimit="10" width="25" height="25"/>
<rect x="125" y="125" fill="#8FC7ED" stroke="#294270" stroke-width="2" stroke-miterlimit="10" width="25" height="25"/>
<rect x="150" y="125" fill="#006CA9" stroke="#294270" stroke-width="2" stroke-miterlimit="10" width="25" height="25"/>
<rect x="125" y="150" fill="#006CA9" stroke="#294270" stroke-width="2" stroke-miterlimit="10" width="25" height="25"/>
<rect x="150" y="150" fill="#006CA9" stroke="#294270" stroke-width="2" stroke-miterlimit="10" width="25" height="25"/>
<rect x="125" y="175" fill="#8FC7ED" stroke="#294270" stroke-width="2" stroke-miterlimit="10" width="25" height="25"/>
<rect x="150" y="175" fill="#8FC7ED" stroke="#294270" stroke-width="2" stroke-miterlimit="10" width="25" height="25"/>
<rect x="125" y="200" fill="#8FC7ED" stroke="#294270" stroke-width="2" stroke-miterlimit="10" width="25" height="25"/>
<rect x="150" y="200" fill="#006CA9" stroke="#294270" stroke-width="2" stroke-miterlimit="10" width="25" height="25"/>
<rect x="175" y="25" fill="#006CA9" stroke="#294270" stroke-width="2" stroke-miterlimit="10" width="25" height="25"/>
<rect x="175" y="50" fill="#8FC7ED" stroke="#294270" stroke-width="2" stroke-miterlimit="10" width="25" height="25"/>
<rect x="175" y="75" fill="#8FC7ED" stroke="#294270" stroke-width="2" stroke-miterlimit="10" width="25" height="25"/>
<rect x="175" y="100" fill="#8FC7ED" stroke="#294270" stroke-width="2" stroke-miterlimit="10" width="25" height="25"/>
<rect x="175" y="125" fill="#8FC7ED" stroke="#294270" stroke-width="2" stroke-miterlimit="10" width="25" height="25"/>
<rect x="175" y="150" fill="#8FC7ED" stroke="#294270" stroke-width="2" stroke-miterlimit="10" width="25" height="25"/>
<rect x="175" y="175" fill="#8FC7ED" stroke="#294270" stroke-width="2" stroke-miterlimit="10" width="25" height="25"/>
<rect x="175" y="200" fill="#006CA9" stroke="#294270" stroke-width="2" stroke-miterlimit="10" width="25" height="25"/>
<rect x="200" y="25" fill="#006CA9" stroke="#294270" stroke-width="2" stroke-miterlimit="10" width="25" height="25"/>
<rect x="200" y="75" fill="#006CA9" stroke="#294270" stroke-width="2" stroke-miterlimit="10" width="25" height="25"/>
<rect x="200" y="100" fill="#006CA9" stroke="#294270" stroke-width="2" stroke-miterlimit="10" width="25" height="25"/>
<rect x="200" y="125" fill="#006CA9" stroke="#294270" stroke-width="2" stroke-miterlimit="10" width="25" height="25"/>
<rect x="200" y="150" fill="#006CA9" stroke="#294270" stroke-width="2" stroke-miterlimit="10" width="25" height="25"/>
<rect x="200" y="175" fill="#006CA9" stroke="#294270" stroke-width="2" stroke-miterlimit="10" width="25" height="25"/>
<rect x="200" y="200" fill="#006CA9" stroke="#294270" stroke-width="2" stroke-miterlimit="10" width="25" height="25"/>
<rect x="225" y="25" fill="#006CA9" stroke="#294270" stroke-width="2" stroke-miterlimit="10" width="25" height="25"/>
<rect x="225" y="50.2" fill="#8FC7ED" stroke="#294270" stroke-width="2" stroke-miterlimit="10" width="25" height="25"/>
<rect x="225" y="75" fill="#006CA9" stroke="#294270" stroke-width="2" stroke-miterlimit="10" width="25" height="25"/>
<rect x="225" y="100" fill="#006CA9" stroke="#294270" stroke-width="2" stroke-miterlimit="10" width="25" height="25"/>
<rect x="225" y="125" fill="#006CA9" stroke="#294270" stroke-width="2" stroke-miterlimit="10" width="25" height="25"/>
<rect x="225" y="150" fill="#8FC7ED" stroke="#294270" stroke-width="2" stroke-miterlimit="10" width="25" height="25"/>
<rect x="225" y="175" fill="#8FC7ED" stroke="#294270" stroke-width="2" stroke-miterlimit="10" width="25" height="25"/>
<rect x="225" y="200" fill="#8FC7ED" stroke="#294270" stroke-width="2" stroke-miterlimit="10" width="25" height="25"/>
<rect x="200" y="50" fill="#8FC7ED" stroke="#294270" stroke-width="2" stroke-miterlimit="10" width="25" height="25"/>
<rect x="25" y="225" fill="#006CA9" stroke="#294270" stroke-width="2" stroke-miterlimit="10" width="25" height="25"/>
<rect x="50" y="225" fill="#006CA9" stroke="#294270" stroke-width="2" stroke-miterlimit="10" width="25" height="25"/>
<rect x="75" y="225" fill="#006CA9" stroke="#294270" stroke-width="2" stroke-miterlimit="10" width="25" height="25"/>
<rect x="100" y="225" fill="#006CA9" stroke="#294270" stroke-width="2" stroke-miterlimit="10" width="25" height="25"/>
<rect x="125" y="225" fill="#8FC7ED" stroke="#294270" stroke-width="2" stroke-miterlimit="10" width="25" height="25"/>
<rect x="150" y="225" fill="#8FC7ED" stroke="#294270" stroke-width="2" stroke-miterlimit="10" width="25" height="25"/>
<rect x="175" y="225" fill="#8FC7ED" stroke="#294270" stroke-width="2" stroke-miterlimit="10" width="25" height="25"/>
<rect x="200" y="225" fill="#8FC7ED" stroke="#294270" stroke-width="2" stroke-miterlimit="10" width="25" height="25"/>
<rect x="225" y="225" fill="#8FC7ED" stroke="#294270" stroke-width="2" stroke-miterlimit="10" width="25" height="25"/>
</svg>
