<?xml version="1.0" encoding="utf-8"?>
<!-- Generator: Adobe Illustrator 18.0.0, SVG Export Plug-In . SVG Version: 6.00 Build 0)  -->
<!DOCTYPE svg PUBLIC "-//W3C//DTD SVG 1.1//EN" "http://www.w3.org/Graphics/SVG/1.1/DTD/svg11.dtd">
<svg version="1.1" id="Layer_1" xmlns="http://www.w3.org/2000/svg" xmlns:xlink="http://www.w3.org/1999/xlink" x="0px" y="0px"
	 viewBox="0 0 550 275" enable-background="new 0 0 550 275" xml:space="preserve">
<rect x="300" y="25" fill="#8FC7ED" stroke="#294270" stroke-width="2" stroke-miterlimit="10" width="25" height="25"/>
<rect x="325" y="25" fill="#8FC7ED" stroke="#294270" stroke-width="2" stroke-miterlimit="10" width="25" height="25"/>
<rect x="300" y="50" fill="#8FC7ED" stroke="#294270" stroke-width="2" stroke-miterlimit="10" width="25" height="25"/>
<rect x="325" y="50" fill="#006CA9" stroke="#294270" stroke-width="2" stroke-miterlimit="10" width="25" height="25"/>
<rect x="300" y="75" fill="#8FC7ED" stroke="#294270" stroke-width="2" stroke-miterlimit="10" width="25" height="25"/>
<rect x="325" y="75" fill="#8FC7ED" stroke="#294270" stroke-width="2" stroke-miterlimit="10" width="25" height="25"/>
<rect x="300" y="100" fill="#006CA9" stroke="#294270" stroke-width="2" stroke-miterlimit="10" width="25" height="25"/>
<rect x="325" y="100" fill="#006CA9" stroke="#294270" stroke-width="2" stroke-miterlimit="10" width="25" height="25"/>
<rect x="300" y="125" fill="#006CA9" stroke="#294270" stroke-width="2" stroke-miterlimit="10" width="25" height="25"/>
<rect x="325" y="125" fill="#006CA9" stroke="#294270" stroke-width="2" stroke-miterlimit="10" width="25" height="25"/>
<rect x="300" y="150" fill="#006CA9" stroke="#294270" stroke-width="2" stroke-miterlimit="10" width="25" height="25"/>
<rect x="325" y="150" fill="#006CA9" stroke="#294270" stroke-width="2" stroke-miterlimit="10" width="25" height="25"/>
<rect x="300" y="175" fill="#006CA9" stroke="#294270" stroke-width="2" stroke-miterlimit="10" width="25" height="25"/>
<rect x="325" y="175" fill="#8FC7ED" stroke="#294270" stroke-width="2" stroke-miterlimit="10" width="25" height="25"/>
<rect x="300" y="200" fill="#006CA9" stroke="#294270" stroke-width="2" stroke-miterlimit="10" width="25" height="25"/>
<rect x="325" y="200" fill="#006CA9" stroke="#294270" stroke-width="2" stroke-miterlimit="10" width="25" height="25"/>
<rect x="350" y="25" fill="#8FC7ED" stroke="#294270" stroke-width="2" stroke-miterlimit="10" width="25" height="25"/>
<rect x="375" y="25" fill="#006CA9" stroke="#294270" stroke-width="2" stroke-miterlimit="10" width="25" height="25"/>
<rect x="350" y="50" fill="#006CA9" stroke="#294270" stroke-width="2" stroke-miterlimit="10" width="25" height="25"/>
<rect x="375" y="50" fill="#006CA9" stroke="#294270" stroke-width="2" stroke-miterlimit="10" width="25" height="25"/>
<rect x="350" y="75" fill="#8FC7ED" stroke="#294270" stroke-width="2" stroke-miterlimit="10" width="25" height="25"/>
<rect x="375" y="75" fill="#8FC7ED" stroke="#294270" stroke-width="2" stroke-miterlimit="10" width="25" height="25"/>
<rect x="350" y="100" fill="#006CA9" stroke="#294270" stroke-width="2" stroke-miterlimit="10" width="25" height="25"/>
<rect x="375" y="100" fill="#006CA9" stroke="#294270" stroke-width="2" stroke-miterlimit="10" width="25" height="25"/>
<rect x="350" y="125" fill="#8FC7ED" stroke="#294270" stroke-width="2" stroke-miterlimit="10" width="25" height="25"/>
<rect x="375" y="125" fill="#8FC7ED" stroke="#294270" stroke-width="2" stroke-miterlimit="10" width="25" height="25"/>
<rect x="350" y="150" fill="#8FC7ED" stroke="#294270" stroke-width="2" stroke-miterlimit="10" width="25" height="25"/>
<rect x="375" y="150" fill="#006CA9" stroke="#294270" stroke-width="2" stroke-miterlimit="10" width="25" height="25"/>
<rect x="350" y="175" fill="#8FC7ED" stroke="#294270" stroke-width="2" stroke-miterlimit="10" width="25" height="25"/>
<rect x="375" y="175" fill="#8FC7ED" stroke="#294270" stroke-width="2" stroke-miterlimit="10" width="25" height="25"/>
<rect x="350" y="200" fill="#8FC7ED" stroke="#294270" stroke-width="2" stroke-miterlimit="10" width="25" height="25"/>
<rect x="375" y="200" fill="#006CA9" stroke="#294270" stroke-width="2" stroke-miterlimit="10" width="25" height="25"/>
<rect x="400" y="25" fill="#006CA9" stroke="#294270" stroke-width="2" stroke-miterlimit="10" width="25" height="25"/>
<rect x="425" y="25" fill="#006CA9" stroke="#294270" stroke-width="2" stroke-miterlimit="10" width="25" height="25"/>
<rect x="400" y="50" fill="#8FC7ED" stroke="#294270" stroke-width="2" stroke-miterlimit="10" width="25" height="25"/>
<rect x="425" y="50" fill="#006CA9" stroke="#294270" stroke-width="2" stroke-miterlimit="10" width="25" height="25"/>
<rect x="400" y="75" fill="#8FC7ED" stroke="#294270" stroke-width="2" stroke-miterlimit="10" width="25" height="25"/>
<rect x="425" y="75" fill="#006CA9" stroke="#294270" stroke-width="2" stroke-miterlimit="10" width="25" height="25"/>
<rect x="400" y="100" fill="#8FC7ED" stroke="#294270" stroke-width="2" stroke-miterlimit="10" width="25" height="25"/>
<rect x="425" y="100" fill="#006CA9" stroke="#294270" stroke-width="2" stroke-miterlimit="10" width="25" height="25"/>
<rect x="400" y="125" fill="#8FC7ED" stroke="#294270" stroke-width="2" stroke-miterlimit="10" width="25" height="25"/>
<rect x="425" y="125" fill="#006CA9" stroke="#294270" stroke-width="2" stroke-miterlimit="10" width="25" height="25"/>
<rect x="400" y="150" fill="#006CA9" stroke="#294270" stroke-width="2" stroke-miterlimit="10" width="25" height="25"/>
<rect x="425" y="150" fill="#006CA9" stroke="#294270" stroke-width="2" stroke-miterlimit="10" width="25" height="25"/>
<rect x="400" y="175" fill="#8FC7ED" stroke="#294270" stroke-width="2" stroke-miterlimit="10" width="25" height="25"/>
<rect x="425" y="175" fill="#8FC7ED" stroke="#294270" stroke-width="2" stroke-miterlimit="10" width="25" height="25"/>
<rect x="400" y="200" fill="#8FC7ED" stroke="#294270" stroke-width="2" stroke-miterlimit="10" width="25" height="25"/>
<rect x="425" y="200" fill="#006CA9" stroke="#294270" stroke-width="2" stroke-miterlimit="10" width="25" height="25"/>
<rect x="450" y="25" fill="#006CA9" stroke="#294270" stroke-width="2" stroke-miterlimit="10" width="25" height="25"/>
<rect x="450" y="50" fill="#8FC7ED" stroke="#294270" stroke-width="2" stroke-miterlimit="10" width="25" height="25"/>
<rect x="450" y="75" fill="#8FC7ED" stroke="#294270" stroke-width="2" stroke-miterlimit="10" width="25" height="25"/>
<rect x="450" y="100" fill="#8FC7ED" stroke="#294270" stroke-width="2" stroke-miterlimit="10" width="25" height="25"/>
<rect x="450" y="125" fill="#8FC7ED" stroke="#294270" stroke-width="2" stroke-miterlimit="10" width="25" height="25"/>
<rect x="450" y="150" fill="#8FC7ED" stroke="#294270" stroke-width="2" stroke-miterlimit="10" width="25" height="25"/>
<rect x="450" y="175" fill="#8FC7ED" stroke="#294270" stroke-width="2" stroke-miterlimit="10" width="25" height="25"/>
<rect x="450" y="200" fill="#006CA9" stroke="#294270" stroke-width="2" stroke-miterlimit="10" width="25" height="25"/>
<g>
	<path fill="#294270" d="M313.7,29.2v3.1h2.1v2.4h-2.1v6.5c0,0.5,0.1,0.8,0.3,1.1s0.5,0.3,0.8,0.3c0.2,0,0.3,0,0.5,0
		s0.3-0.1,0.5-0.1l0.3,2.5c-0.3,0.1-0.7,0.2-1,0.3s-0.7,0.1-1.1,0.1c-1.2,0-2.1-0.3-2.7-1s-1-1.7-1-3.1v-6.5h-1.9v-2.4h1.9v-3.1
		H313.7z"/>
</g>
<g>
	<path fill="#294270" d="M331.5,37.4c0-1.9,0.5-3.4,1.6-4.6s2.5-1.8,4.4-1.8c1.9,0,3.3,0.6,4.4,1.8s1.6,2.8,1.6,4.7v0.2
		c0,1.9-0.5,3.5-1.6,4.7s-2.5,1.8-4.4,1.8c-1.9,0-3.3-0.6-4.4-1.8s-1.6-2.8-1.6-4.7V37.4z M334.9,37.6c0,1.2,0.2,2.1,0.6,2.8
		c0.4,0.7,1.1,1,2,1c0.9,0,1.5-0.4,1.9-1.1c0.4-0.7,0.6-1.6,0.6-2.8v-0.2c0-1.1-0.2-2-0.6-2.7s-1.1-1.1-2-1.1
		c-0.9,0-1.5,0.4-1.9,1.1s-0.6,1.6-0.6,2.7V37.6z"/>
</g>
<g>
	<path fill="#294270" d="M318.2,85.5c0,1.9-0.4,3.4-1.3,4.5s-2.1,1.7-3.6,1.7c-0.7,0-1.3-0.1-1.8-0.4s-1-0.6-1.3-1.1v6.1h-3.4V78.8
		h3.1l0.2,1.5c0.4-0.6,0.8-1,1.4-1.3s1.1-0.5,1.8-0.5c1.6,0,2.8,0.6,3.7,1.8s1.3,2.8,1.3,4.8V85.5z M314.8,85.3
		c0-1.2-0.2-2.2-0.6-2.9c-0.4-0.7-1-1.1-1.8-1.1c-0.5,0-1,0.1-1.3,0.3s-0.7,0.5-0.9,0.9V88c0.2,0.4,0.5,0.6,0.9,0.8s0.8,0.3,1.3,0.3
		c0.8,0,1.4-0.3,1.8-1s0.6-1.5,0.6-2.6V85.3z"/>
</g>
<g>
	<path fill="#294270" d="M339.2,80.9h-3.4v-2.6h3.4V80.9z M339.2,96.6h-3.4V84h3.4V96.6z"/>
</g>
<g>
	<path fill="#294270" d="M465.1,68.8c-0.1-0.3-0.2-0.6-0.3-0.9s-0.2-0.6-0.2-1c-0.4,0.6-0.8,1.1-1.4,1.5s-1.3,0.6-2.1,0.6
		c-1.3,0-2.4-0.3-3.1-1s-1.1-1.6-1.1-2.8c0-1.2,0.5-2.2,1.4-2.9s2.4-1,4.2-1h1.9v-1c0-0.6-0.2-1.1-0.5-1.4s-0.8-0.5-1.4-0.5
		c-0.6,0-1,0.1-1.3,0.4s-0.5,0.6-0.5,1.1l-3.3,0l0-0.1c-0.1-1.1,0.4-2,1.4-2.8s2.3-1.2,3.9-1.2c1.5,0,2.7,0.4,3.7,1.2
		s1.4,1.9,1.4,3.3v5.2c0,0.6,0,1.2,0.1,1.7s0.2,1,0.4,1.6H465.1z M462,66.5c0.6,0,1.1-0.1,1.6-0.4s0.8-0.6,0.9-1v-1.8h-1.9
		c-0.7,0-1.3,0.2-1.7,0.5s-0.6,0.8-0.6,1.3c0,0.4,0.1,0.8,0.4,1S461.5,66.5,462,66.5z"/>
</g>
<g>
	<path fill="#294270" d="M411.8,64.1l0.2,1.2h0.1l0.2-1.2l2.1-8h3.6l-4.3,12.7h-3.3l-4.3-12.7h3.6L411.8,64.1z"/>
</g>
<g>
	<path fill="#294270" d="M415.1,93.8c-0.1-0.3-0.2-0.6-0.3-0.9s-0.2-0.6-0.2-1c-0.4,0.6-0.8,1.1-1.4,1.5s-1.3,0.6-2.1,0.6
		c-1.3,0-2.4-0.3-3.1-1s-1.1-1.6-1.1-2.8c0-1.2,0.5-2.2,1.4-2.9s2.4-1,4.2-1h1.9v-1c0-0.6-0.2-1.1-0.5-1.4s-0.8-0.5-1.4-0.5
		c-0.6,0-1,0.1-1.3,0.4s-0.5,0.6-0.5,1.1l-3.3,0l0-0.1c-0.1-1.1,0.4-2,1.4-2.8s2.3-1.2,3.9-1.2c1.5,0,2.7,0.4,3.7,1.2
		s1.4,1.9,1.4,3.3v5.2c0,0.6,0,1.2,0.1,1.7s0.2,1,0.4,1.6H415.1z M412,91.5c0.6,0,1.1-0.1,1.6-0.4s0.8-0.6,0.9-1v-1.8h-1.9
		c-0.7,0-1.3,0.2-1.7,0.5s-0.6,0.8-0.6,1.3c0,0.4,0.1,0.8,0.4,1S411.5,91.5,412,91.5z"/>
</g>
<g>
	<path fill="#294270" d="M386.5,92.4h6.3V95h-10.5v-2l6-8h-5.8v-2.6h10.1v1.9L386.5,92.4z"/>
</g>
<g>
	<path fill="#294270" d="M361.5,92.4h6.3V95h-10.5v-2l6-8h-5.8v-2.6h10.1v1.9L361.5,92.4z"/>
</g>
<rect x="475" y="25" fill="#006CA9" stroke="#294270" stroke-width="2" stroke-miterlimit="10" width="25" height="25"/>
<rect x="475" y="75" fill="#006CA9" stroke="#294270" stroke-width="2" stroke-miterlimit="10" width="25" height="25"/>
<rect x="475" y="100" fill="#006CA9" stroke="#294270" stroke-width="2" stroke-miterlimit="10" width="25" height="25"/>
<rect x="475" y="125" fill="#006CA9" stroke="#294270" stroke-width="2" stroke-miterlimit="10" width="25" height="25"/>
<rect x="475" y="150" fill="#006CA9" stroke="#294270" stroke-width="2" stroke-miterlimit="10" width="25" height="25"/>
<rect x="475" y="175" fill="#006CA9" stroke="#294270" stroke-width="2" stroke-miterlimit="10" width="25" height="25"/>
<rect x="475" y="200" fill="#006CA9" stroke="#294270" stroke-width="2" stroke-miterlimit="10" width="25" height="25"/>
<rect x="500" y="25" fill="#006CA9" stroke="#294270" stroke-width="2" stroke-miterlimit="10" width="25" height="25"/>
<rect x="500" y="50.2" fill="#8FC7ED" stroke="#294270" stroke-width="2" stroke-miterlimit="10" width="25" height="25"/>
<rect x="500" y="75" fill="#006CA9" stroke="#294270" stroke-width="2" stroke-miterlimit="10" width="25" height="25"/>
<rect x="500" y="100" fill="#006CA9" stroke="#294270" stroke-width="2" stroke-miterlimit="10" width="25" height="25"/>
<rect x="500" y="125" fill="#006CA9" stroke="#294270" stroke-width="2" stroke-miterlimit="10" width="25" height="25"/>
<rect x="500" y="150" fill="#8FC7ED" stroke="#294270" stroke-width="2" stroke-miterlimit="10" width="25" height="25"/>
<rect x="500" y="175" fill="#8FC7ED" stroke="#294270" stroke-width="2" stroke-miterlimit="10" width="25" height="25"/>
<rect x="500" y="200" fill="#8FC7ED" stroke="#294270" stroke-width="2" stroke-miterlimit="10" width="25" height="25"/>
<rect x="475" y="50" fill="#8FC7ED" stroke="#294270" stroke-width="2" stroke-miterlimit="10" width="25" height="25"/>
<g>
	<path fill="#294270" d="M489.2,55.9h-3.4v-2.6h3.4V55.9z M489.2,71.6h-3.4V59h3.4V71.6z"/>
</g>
<g>
	<path fill="#294270" d="M516.4,60.4l-1.3,0c-0.5,0-0.9,0.1-1.3,0.3s-0.6,0.5-0.8,0.9v8.6h-3.4V57.4h3.2l0.2,1.9
		c0.3-0.7,0.7-1.2,1.2-1.6s1-0.6,1.6-0.6c0.2,0,0.3,0,0.5,0s0.3,0.1,0.4,0.1L516.4,60.4z"/>
</g>
<g>
	<path fill="#294270" d="M460.4,96.8V86.5h-1.9v-2.4h1.9v-1.4c0-1.4,0.4-2.5,1.2-3.3s2-1.2,3.5-1.2c0.3,0,0.6,0,0.9,0.1
		s0.6,0.1,1,0.2l-0.3,2.5c-0.2,0-0.4-0.1-0.5-0.1s-0.4,0-0.6,0c-0.6,0-1,0.2-1.3,0.5s-0.4,0.7-0.4,1.3v1.4h2.5v2.4h-2.5v10.3H460.4z
		"/>
</g>
<g>
	<path fill="#294270" d="M363.7,179.2v3.1h2.1v2.4h-2.1v6.5c0,0.5,0.1,0.8,0.3,1.1s0.5,0.3,0.8,0.3c0.2,0,0.3,0,0.5,0
		s0.3-0.1,0.5-0.1l0.3,2.5c-0.3,0.1-0.7,0.2-1,0.3s-0.7,0.1-1.1,0.1c-1.2,0-2.1-0.3-2.7-1s-1-1.7-1-3.1v-6.5h-1.9v-2.4h1.9v-3.1
		H363.7z"/>
</g>
<g>
	<path fill="#294270" d="M364.8,168.8c-0.1-0.3-0.2-0.6-0.3-0.9s-0.2-0.6-0.2-1c-0.4,0.6-0.8,1.1-1.4,1.5s-1.3,0.6-2.1,0.6
		c-1.3,0-2.4-0.3-3.1-1s-1.1-1.6-1.1-2.8c0-1.2,0.5-2.2,1.4-2.9s2.4-1,4.2-1h1.9v-1c0-0.6-0.2-1.1-0.5-1.4s-0.8-0.5-1.4-0.5
		c-0.6,0-1,0.1-1.3,0.4s-0.5,0.6-0.5,1.1l-3.3,0l0-0.1c-0.1-1.1,0.4-2,1.4-2.8s2.3-1.2,3.9-1.2c1.5,0,2.7,0.4,3.7,1.2
		s1.4,1.9,1.4,3.3v5.2c0,0.6,0,1.2,0.1,1.7s0.2,1,0.4,1.6H364.8z M361.7,166.5c0.6,0,1.1-0.1,1.6-0.4s0.8-0.6,0.9-1v-1.8h-1.9
		c-0.7,0-1.3,0.2-1.7,0.5s-0.6,0.8-0.6,1.3c0,0.4,0.1,0.8,0.4,1S361.2,166.5,361.7,166.5z"/>
</g>
<g>
	<path fill="#294270" d="M360.4,136.4c0.4-0.6,0.9-1,1.5-1.4s1.2-0.5,1.9-0.5c1.3,0,2.4,0.4,3.1,1.3s1.1,2.2,1.1,4.1v7.5h-3.4v-7.6
		c0-1-0.2-1.7-0.5-2.1s-0.9-0.6-1.6-0.6c-0.5,0-0.9,0.1-1.2,0.3s-0.7,0.4-0.9,0.7v9.3H357v-18.3h3.4V136.4z"/>
</g>
<g>
	<path fill="#294270" d="M389.2,130.9h-3.4v-2.6h3.4V130.9z M389.2,146.6h-3.4V134h3.4V146.6z"/>
</g>
<g>
	<path fill="#294270" d="M414.3,129.5v3.1h2.1v2.4h-2.1v6.5c0,0.5,0.1,0.8,0.3,1.1s0.5,0.3,0.8,0.3c0.2,0,0.3,0,0.5,0
		s0.3-0.1,0.5-0.1l0.3,2.5c-0.3,0.1-0.7,0.2-1,0.3s-0.7,0.1-1.1,0.1c-1.2,0-2.1-0.3-2.7-1s-1-1.7-1-3.1V135H409v-2.4h1.9v-3.1H414.3
		z"/>
</g>
<g>
	<path fill="#294270" d="M414.5,115.3c0-0.4-0.2-0.7-0.5-1s-1-0.5-2-0.7c-1.5-0.3-2.6-0.8-3.4-1.4s-1.1-1.4-1.1-2.4
		c0-1.1,0.5-2,1.4-2.8s2.1-1.1,3.7-1.1c1.6,0,2.9,0.4,3.9,1.1s1.4,1.7,1.4,2.9l0,0.1h-3.3c0-0.5-0.2-0.9-0.5-1.2s-0.8-0.5-1.4-0.5
		c-0.6,0-1,0.1-1.3,0.4s-0.5,0.6-0.5,1c0,0.4,0.2,0.7,0.5,1s1,0.5,2,0.7c1.6,0.3,2.7,0.8,3.5,1.4s1.1,1.4,1.1,2.5
		c0,1.1-0.5,2.1-1.5,2.8s-2.3,1.1-3.9,1.1c-1.7,0-3-0.4-4-1.3s-1.4-1.8-1.4-2.9l0-0.1h3.1c0,0.7,0.2,1.2,0.7,1.5s1,0.5,1.7,0.5
		c0.6,0,1.1-0.1,1.4-0.4S414.5,115.8,414.5,115.3z"/>
</g>
<g>
	<path fill="#294270" d="M406.5,213.5c0-1.9,0.5-3.4,1.6-4.6s2.5-1.8,4.4-1.8c1.9,0,3.3,0.6,4.4,1.8s1.6,2.8,1.6,4.7v0.2
		c0,1.9-0.5,3.5-1.6,4.7s-2.5,1.8-4.4,1.8c-1.9,0-3.3-0.6-4.4-1.8s-1.6-2.8-1.6-4.7V213.5z M409.9,213.8c0,1.2,0.2,2.1,0.6,2.8
		s1.1,1,2,1c0.9,0,1.5-0.4,1.9-1.1s0.6-1.6,0.6-2.8v-0.2c0-1.1-0.2-2-0.6-2.7s-1.1-1.1-2-1.1c-0.9,0-1.5,0.4-1.9,1.1
		s-0.6,1.6-0.6,2.7V213.8z"/>
</g>
<g>
	<path fill="#294270" d="M463.1,144.1c-1.8,0-3.3-0.6-4.4-1.8s-1.6-2.7-1.6-4.5v-0.5c0-1.9,0.5-3.4,1.6-4.7s2.4-1.8,4.2-1.8
		c1.7,0,3,0.5,4,1.5s1.4,2.4,1.4,4.2v1.9h-7.6l0,0.1c0.1,0.8,0.3,1.5,0.8,2.1c0.5,0.5,1.2,0.8,2,0.8c0.8,0,1.4-0.1,1.9-0.2
		s1-0.4,1.6-0.7l0.9,2.1c-0.5,0.4-1.2,0.8-2,1.1C465,143.9,464.1,144.1,463.1,144.1z M462.8,133.6c-0.6,0-1.1,0.2-1.5,0.7
		s-0.6,1.1-0.7,1.9l0,0.1h4.2v-0.3c0-0.7-0.2-1.3-0.5-1.7S463.5,133.6,462.8,133.6z"/>
</g>
<g>
	<path fill="#294270" d="M462.9,166.4c0.6,0,1.1-0.2,1.5-0.5c0.4-0.4,0.6-0.8,0.6-1.4h3.1l0,0.1c0,1.3-0.5,2.4-1.4,3.2
		s-2.2,1.3-3.7,1.3c-1.9,0-3.3-0.6-4.4-1.8s-1.5-2.7-1.5-4.6v-0.4c0-1.9,0.5-3.4,1.5-4.6s2.5-1.8,4.4-1.8c1.6,0,2.8,0.4,3.8,1.3
		s1.4,2.1,1.4,3.5l0,0.1h-3.1c0-0.7-0.2-1.2-0.5-1.6s-0.9-0.7-1.5-0.7c-0.9,0-1.5,0.4-1.9,1.1s-0.6,1.6-0.6,2.7v0.4
		c0,1.1,0.2,2,0.6,2.7C461.3,166.1,462,166.4,462.9,166.4z"/>
</g>
<g>
	<path fill="#294270" d="M463.7,179.2v3.1h2.1v2.4h-2.1v6.5c0,0.5,0.1,0.8,0.3,1.1s0.5,0.3,0.8,0.3c0.2,0,0.3,0,0.5,0
		s0.3-0.1,0.5-0.1l0.3,2.5c-0.3,0.1-0.7,0.2-1,0.3s-0.7,0.1-1.1,0.1c-1.2,0-2.1-0.3-2.7-1s-1-1.7-1-3.1v-6.5h-1.9v-2.4h1.9v-3.1
		H463.7z"/>
</g>
<g>
	<path fill="#294270" d="M438.1,195.2c-1.8,0-3.3-0.6-4.4-1.8s-1.6-2.7-1.6-4.5v-0.5c0-1.9,0.5-3.4,1.6-4.7s2.4-1.8,4.2-1.8
		c1.7,0,3,0.5,4,1.5s1.4,2.4,1.4,4.2v1.9h-7.6l0,0.1c0.1,0.8,0.3,1.5,0.8,2.1c0.5,0.5,1.2,0.8,2,0.8c0.8,0,1.4-0.1,1.9-0.2
		s1-0.4,1.6-0.7l0.9,2.1c-0.5,0.4-1.2,0.8-2,1.1C440,195.1,439.1,195.2,438.1,195.2z M437.8,184.7c-0.6,0-1.1,0.2-1.5,0.7
		s-0.6,1.1-0.7,1.9l0,0.1h4.2v-0.3c0-0.7-0.2-1.3-0.5-1.7S438.5,184.7,437.8,184.7z"/>
</g>
<g>
	<path fill="#294270" d="M413.1,195.2c-1.8,0-3.3-0.6-4.4-1.8s-1.6-2.7-1.6-4.5v-0.5c0-1.9,0.5-3.4,1.6-4.7s2.4-1.8,4.2-1.8
		c1.7,0,3,0.5,4,1.5s1.4,2.4,1.4,4.2v1.9h-7.6l0,0.1c0.1,0.8,0.3,1.5,0.8,2.1c0.5,0.5,1.2,0.8,2,0.8c0.8,0,1.4-0.1,1.9-0.2
		s1-0.4,1.6-0.7l0.9,2.1c-0.5,0.4-1.2,0.8-2,1.1C415,195.1,414.1,195.2,413.1,195.2z M412.8,184.7c-0.6,0-1.1,0.2-1.5,0.7
		s-0.6,1.1-0.7,1.9l0,0.1h4.2v-0.3c0-0.7-0.2-1.3-0.5-1.7S413.5,184.7,412.8,184.7z"/>
</g>
<g>
	<path fill="#294270" d="M391.3,185.3l-1.3,0c-0.5,0-0.9,0.1-1.3,0.3s-0.6,0.5-0.8,0.9v8.6h-3.4v-12.7h3.2l0.2,1.9
		c0.3-0.7,0.7-1.2,1.2-1.6s1-0.6,1.6-0.6c0.2,0,0.3,0,0.5,0s0.3,0.1,0.4,0.1L391.3,185.3z"/>
</g>
<g>
	<path fill="#294270" d="M339.5,191.5c0-0.4-0.2-0.7-0.5-1s-1-0.5-2-0.7c-1.5-0.3-2.6-0.8-3.4-1.4s-1.1-1.4-1.1-2.4
		c0-1.1,0.5-2,1.4-2.8s2.1-1.1,3.7-1.1c1.6,0,2.9,0.4,3.9,1.1s1.4,1.7,1.4,2.9l0,0.1h-3.3c0-0.5-0.2-0.9-0.5-1.2s-0.8-0.5-1.4-0.5
		c-0.6,0-1,0.1-1.3,0.4s-0.5,0.6-0.5,1c0,0.4,0.2,0.7,0.5,1s1,0.5,2,0.7c1.6,0.3,2.7,0.8,3.5,1.4s1.1,1.4,1.1,2.5
		c0,1.1-0.5,2.1-1.5,2.8s-2.3,1.1-3.9,1.1c-1.7,0-3-0.4-4-1.3s-1.4-1.8-1.4-2.9l0-0.1h3.1c0,0.7,0.2,1.2,0.7,1.5s1,0.5,1.7,0.5
		c0.6,0,1.1-0.1,1.4-0.4S339.5,191.9,339.5,191.5z"/>
</g>
<g>
	<path fill="#294270" d="M363.1,220.2c-1.8,0-3.3-0.6-4.4-1.8s-1.6-2.7-1.6-4.5v-0.5c0-1.9,0.5-3.4,1.6-4.7s2.4-1.8,4.2-1.8
		c1.7,0,3,0.5,4,1.5s1.4,2.4,1.4,4.2v1.9h-7.6l0,0.1c0.1,0.8,0.3,1.5,0.8,2.1c0.5,0.5,1.2,0.8,2,0.8c0.8,0,1.4-0.1,1.9-0.2
		s1-0.4,1.6-0.7l0.9,2.1c-0.5,0.4-1.2,0.8-2,1.1C365,220.1,364.1,220.2,363.1,220.2z M362.8,209.7c-0.6,0-1.1,0.2-1.5,0.7
		s-0.6,1.1-0.7,1.9l0,0.1h4.2v-0.3c0-0.7-0.2-1.3-0.5-1.7S363.5,209.7,362.8,209.7z"/>
</g>
<g>
	<path fill="#294270" d="M511.7,214.7h-0.9v5.3h-3.4v-18.3h3.4v10.4h0.8l2.9-4.8h4l-4.1,5.7l4.7,6.9h-3.9L511.7,214.7z"/>
</g>
<g>
	<path fill="#294270" d="M514.2,180.7h-3.4v-2.6h3.4V180.7z M514.2,196.4h-3.4v-12.7h3.4V196.4z"/>
</g>
<g>
	<path fill="#294270" d="M518.5,165.5c0,1.9-0.4,3.4-1.3,4.5s-2.1,1.7-3.7,1.7c-0.7,0-1.4-0.2-1.9-0.5s-1-0.8-1.4-1.4l-0.3,1.6H507
		v-18.3h3.4v6.9c0.4-0.5,0.8-0.9,1.3-1.2s1.1-0.4,1.8-0.4c1.6,0,2.8,0.6,3.7,1.8s1.3,2.8,1.3,4.9V165.5z M515.1,165.3
		c0-1.2-0.2-2.2-0.5-3c-0.4-0.7-1-1.1-1.9-1.1c-0.5,0-1,0.1-1.3,0.3c-0.4,0.2-0.7,0.5-0.9,1v5.4c0.2,0.4,0.5,0.7,0.9,0.9
		c0.4,0.2,0.8,0.3,1.4,0.3c0.9,0,1.5-0.3,1.9-0.9c0.4-0.6,0.5-1.5,0.5-2.7V165.3z"/>
</g>
<g>
	<path fill="#294270" d="M460.4,121.8v-10.3h-1.9v-2.4h1.9v-1.4c0-1.4,0.4-2.5,1.2-3.3s2-1.2,3.5-1.2c0.3,0,0.6,0,0.9,0.1
		s0.6,0.1,1,0.2l-0.3,2.5c-0.2,0-0.4-0.1-0.5-0.1s-0.4,0-0.6,0c-0.6,0-1,0.2-1.3,0.5s-0.4,0.7-0.4,1.3v1.4h2.5v2.4h-2.5v10.3H460.4z
		"/>
</g>
<rect x="300" y="225" fill="#006CA9" stroke="#294270" stroke-width="2" stroke-miterlimit="10" width="25" height="25"/>
<rect x="325" y="225" fill="#006CA9" stroke="#294270" stroke-width="2" stroke-miterlimit="10" width="25" height="25"/>
<rect x="350" y="225" fill="#006CA9" stroke="#294270" stroke-width="2" stroke-miterlimit="10" width="25" height="25"/>
<rect x="375" y="225" fill="#006CA9" stroke="#294270" stroke-width="2" stroke-miterlimit="10" width="25" height="25"/>
<rect x="400" y="225" fill="#8FC7ED" stroke="#294270" stroke-width="2" stroke-miterlimit="10" width="25" height="25"/>
<rect x="425" y="225" fill="#8FC7ED" stroke="#294270" stroke-width="2" stroke-miterlimit="10" width="25" height="25"/>
<rect x="450" y="225" fill="#8FC7ED" stroke="#294270" stroke-width="2" stroke-miterlimit="10" width="25" height="25"/>
<rect x="475" y="225" fill="#8FC7ED" stroke="#294270" stroke-width="2" stroke-miterlimit="10" width="25" height="25"/>
<rect x="500" y="225" fill="#8FC7ED" stroke="#294270" stroke-width="2" stroke-miterlimit="10" width="25" height="25"/>
<g>
	<path fill="#294270" d="M406.5,240.3c0-2,0.4-3.6,1.3-4.8s2.1-1.8,3.7-1.8c0.6,0,1.2,0.1,1.7,0.4s1,0.7,1.3,1.2v-6.9h3.4v18.3H415
		l-0.3-1.5c-0.4,0.6-0.9,1-1.4,1.3s-1.2,0.5-1.9,0.5c-1.6,0-2.8-0.6-3.6-1.7s-1.3-2.6-1.3-4.5V240.3z M409.9,240.5
		c0,1.1,0.2,2,0.6,2.6c0.4,0.6,1,1,1.8,1c0.5,0,0.9-0.1,1.3-0.3c0.4-0.2,0.7-0.5,0.9-0.9v-5.4c-0.2-0.4-0.5-0.7-0.9-0.9
		c-0.4-0.2-0.8-0.3-1.3-0.3c-0.8,0-1.4,0.4-1.8,1.1c-0.4,0.7-0.6,1.7-0.6,2.9V240.5z"/>
</g>
<g>
	<path fill="#294270" d="M441.3,235.3l-1.3,0c-0.5,0-0.9,0.1-1.3,0.3s-0.6,0.5-0.8,0.9v8.6h-3.4v-12.7h3.2l0.2,1.9
		c0.3-0.7,0.7-1.2,1.2-1.6s1-0.6,1.6-0.6c0.2,0,0.3,0,0.5,0s0.3,0.1,0.4,0.1L441.3,235.3z"/>
</g>
<g>
	<path fill="#294270" d="M513.1,245.2c-1.8,0-3.3-0.6-4.4-1.8s-1.6-2.7-1.6-4.5v-0.5c0-1.9,0.5-3.4,1.6-4.7s2.4-1.8,4.2-1.8
		c1.7,0,3,0.5,4,1.5s1.4,2.4,1.4,4.2v1.9h-7.6l0,0.1c0.1,0.8,0.3,1.5,0.8,2.1c0.5,0.5,1.2,0.8,2,0.8c0.8,0,1.4-0.1,1.9-0.2
		s1-0.4,1.6-0.7l0.9,2.1c-0.5,0.4-1.2,0.8-2,1.1C515,245.1,514.1,245.2,513.1,245.2z M512.8,234.7c-0.6,0-1.1,0.2-1.5,0.7
		s-0.6,1.1-0.7,1.9l0,0.1h4.2v-0.3c0-0.7-0.2-1.3-0.5-1.7S513.5,234.7,512.8,234.7z"/>
</g>
<g>
	<path fill="#294270" d="M464.2,230.9h-3.4v-2.6h3.4V230.9z M464.2,246.6h-3.4V234h3.4V246.6z"/>
</g>
<g>
	<path fill="#294270" d="M487.3,240.3l0.2,1.2h0.1l0.2-1.2l2.1-8h3.6l-4.3,12.7h-3.3l-4.3-12.7h3.6L487.3,240.3z"/>
</g>
<g>
	<path fill="#294270" d="M368.2,35.5c0,1.9-0.4,3.4-1.3,4.5s-2.1,1.7-3.6,1.7c-0.7,0-1.3-0.1-1.8-0.4s-1-0.6-1.3-1.1v6.1h-3.4V28.8
		h3.1l0.2,1.5c0.4-0.6,0.8-1,1.4-1.3s1.1-0.5,1.8-0.5c1.6,0,2.8,0.6,3.7,1.8s1.3,2.8,1.3,4.8V35.5z M364.8,35.3
		c0-1.2-0.2-2.2-0.6-2.9c-0.4-0.7-1-1.1-1.8-1.1c-0.5,0-1,0.1-1.3,0.3s-0.7,0.5-0.9,0.9V38c0.2,0.4,0.5,0.6,0.9,0.8s0.8,0.3,1.3,0.3
		c0.8,0,1.4-0.3,1.8-1s0.6-1.5,0.6-2.6V35.3z"/>
</g>
<g>
	<path fill="#294270" d="M313.9,55.9h-3.4v-2.6h3.4V55.9z M313.9,71.6h-3.4V59h3.4V71.6z"/>
</g>
<rect x="25" y="25" fill="#8FC7ED" stroke="#294270" stroke-width="2" stroke-miterlimit="10" width="25" height="25"/>
<rect x="50" y="25" fill="#8FC7ED" stroke="#294270" stroke-width="2" stroke-miterlimit="10" width="25" height="25"/>
<rect x="25" y="50" fill="#8FC7ED" stroke="#294270" stroke-width="2" stroke-miterlimit="10" width="25" height="25"/>
<rect x="50" y="50" fill="#006CA9" stroke="#294270" stroke-width="2" stroke-miterlimit="10" width="25" height="25"/>
<rect x="25" y="75" fill="#8FC7ED" stroke="#294270" stroke-width="2" stroke-miterlimit="10" width="25" height="25"/>
<rect x="50" y="75" fill="#8FC7ED" stroke="#294270" stroke-width="2" stroke-miterlimit="10" width="25" height="25"/>
<rect x="25" y="100" fill="#006CA9" stroke="#294270" stroke-width="2" stroke-miterlimit="10" width="25" height="25"/>
<rect x="50" y="100" fill="#006CA9" stroke="#294270" stroke-width="2" stroke-miterlimit="10" width="25" height="25"/>
<rect x="25" y="125" fill="#006CA9" stroke="#294270" stroke-width="2" stroke-miterlimit="10" width="25" height="25"/>
<rect x="50" y="125" fill="#006CA9" stroke="#294270" stroke-width="2" stroke-miterlimit="10" width="25" height="25"/>
<rect x="25" y="150" fill="#006CA9" stroke="#294270" stroke-width="2" stroke-miterlimit="10" width="25" height="25"/>
<rect x="50" y="150" fill="#006CA9" stroke="#294270" stroke-width="2" stroke-miterlimit="10" width="25" height="25"/>
<rect x="25" y="175" fill="#006CA9" stroke="#294270" stroke-width="2" stroke-miterlimit="10" width="25" height="25"/>
<rect x="50" y="175" fill="#8FC7ED" stroke="#294270" stroke-width="2" stroke-miterlimit="10" width="25" height="25"/>
<rect x="25" y="200" fill="#006CA9" stroke="#294270" stroke-width="2" stroke-miterlimit="10" width="25" height="25"/>
<rect x="50" y="200" fill="#006CA9" stroke="#294270" stroke-width="2" stroke-miterlimit="10" width="25" height="25"/>
<rect x="75" y="25" fill="#8FC7ED" stroke="#294270" stroke-width="2" stroke-miterlimit="10" width="25" height="25"/>
<rect x="100" y="25" fill="#006CA9" stroke="#294270" stroke-width="2" stroke-miterlimit="10" width="25" height="25"/>
<rect x="75" y="50" fill="#006CA9" stroke="#294270" stroke-width="2" stroke-miterlimit="10" width="25" height="25"/>
<rect x="100" y="50" fill="#006CA9" stroke="#294270" stroke-width="2" stroke-miterlimit="10" width="25" height="25"/>
<rect x="75" y="75" fill="#8FC7ED" stroke="#294270" stroke-width="2" stroke-miterlimit="10" width="25" height="25"/>
<rect x="100" y="75" fill="#8FC7ED" stroke="#294270" stroke-width="2" stroke-miterlimit="10" width="25" height="25"/>
<rect x="75" y="100" fill="#006CA9" stroke="#294270" stroke-width="2" stroke-miterlimit="10" width="25" height="25"/>
<rect x="100" y="100" fill="#006CA9" stroke="#294270" stroke-width="2" stroke-miterlimit="10" width="25" height="25"/>
<rect x="75" y="125" fill="#8FC7ED" stroke="#294270" stroke-width="2" stroke-miterlimit="10" width="25" height="25"/>
<rect x="100" y="125" fill="#8FC7ED" stroke="#294270" stroke-width="2" stroke-miterlimit="10" width="25" height="25"/>
<rect x="75" y="150" fill="#8FC7ED" stroke="#294270" stroke-width="2" stroke-miterlimit="10" width="25" height="25"/>
<rect x="100" y="150" fill="#006CA9" stroke="#294270" stroke-width="2" stroke-miterlimit="10" width="25" height="25"/>
<rect x="75" y="175" fill="#8FC7ED" stroke="#294270" stroke-width="2" stroke-miterlimit="10" width="25" height="25"/>
<rect x="100" y="175" fill="#8FC7ED" stroke="#294270" stroke-width="2" stroke-miterlimit="10" width="25" height="25"/>
<rect x="75" y="200" fill="#8FC7ED" stroke="#294270" stroke-width="2" stroke-miterlimit="10" width="25" height="25"/>
<rect x="100" y="200" fill="#006CA9" stroke="#294270" stroke-width="2" stroke-miterlimit="10" width="25" height="25"/>
<rect x="125" y="25" fill="#006CA9" stroke="#294270" stroke-width="2" stroke-miterlimit="10" width="25" height="25"/>
<rect x="150" y="25" fill="#006CA9" stroke="#294270" stroke-width="2" stroke-miterlimit="10" width="25" height="25"/>
<rect x="125" y="50" fill="#8FC7ED" stroke="#294270" stroke-width="2" stroke-miterlimit="10" width="25" height="25"/>
<rect x="150" y="50" fill="#006CA9" stroke="#294270" stroke-width="2" stroke-miterlimit="10" width="25" height="25"/>
<rect x="125" y="75" fill="#8FC7ED" stroke="#294270" stroke-width="2" stroke-miterlimit="10" width="25" height="25"/>
<rect x="150" y="75" fill="#006CA9" stroke="#294270" stroke-width="2" stroke-miterlimit="10" width="25" height="25"/>
<rect x="125" y="100" fill="#8FC7ED" stroke="#294270" stroke-width="2" stroke-miterlimit="10" width="25" height="25"/>
<rect x="150" y="100" fill="#006CA9" stroke="#294270" stroke-width="2" stroke-miterlimit="10" width="25" height="25"/>
<rect x="125" y="125" fill="#8FC7ED" stroke="#294270" stroke-width="2" stroke-miterlimit="10" width="25" height="25"/>
<rect x="150" y="125" fill="#006CA9" stroke="#294270" stroke-width="2" stroke-miterlimit="10" width="25" height="25"/>
<rect x="125" y="150" fill="#006CA9" stroke="#294270" stroke-width="2" stroke-miterlimit="10" width="25" height="25"/>
<rect x="150" y="150" fill="#006CA9" stroke="#294270" stroke-width="2" stroke-miterlimit="10" width="25" height="25"/>
<rect x="125" y="175" fill="#8FC7ED" stroke="#294270" stroke-width="2" stroke-miterlimit="10" width="25" height="25"/>
<rect x="150" y="175" fill="#8FC7ED" stroke="#294270" stroke-width="2" stroke-miterlimit="10" width="25" height="25"/>
<rect x="125" y="200" fill="#8FC7ED" stroke="#294270" stroke-width="2" stroke-miterlimit="10" width="25" height="25"/>
<rect x="150" y="200" fill="#006CA9" stroke="#294270" stroke-width="2" stroke-miterlimit="10" width="25" height="25"/>
<rect x="175" y="25" fill="#006CA9" stroke="#294270" stroke-width="2" stroke-miterlimit="10" width="25" height="25"/>
<rect x="175" y="50" fill="#8FC7ED" stroke="#294270" stroke-width="2" stroke-miterlimit="10" width="25" height="25"/>
<rect x="175" y="75" fill="#8FC7ED" stroke="#294270" stroke-width="2" stroke-miterlimit="10" width="25" height="25"/>
<rect x="175" y="100" fill="#8FC7ED" stroke="#294270" stroke-width="2" stroke-miterlimit="10" width="25" height="25"/>
<rect x="175" y="125" fill="#8FC7ED" stroke="#294270" stroke-width="2" stroke-miterlimit="10" width="25" height="25"/>
<rect x="175" y="150" fill="#8FC7ED" stroke="#294270" stroke-width="2" stroke-miterlimit="10" width="25" height="25"/>
<rect x="175" y="175" fill="#8FC7ED" stroke="#294270" stroke-width="2" stroke-miterlimit="10" width="25" height="25"/>
<rect x="175" y="200" fill="#006CA9" stroke="#294270" stroke-width="2" stroke-miterlimit="10" width="25" height="25"/>
<rect x="200" y="25" fill="#006CA9" stroke="#294270" stroke-width="2" stroke-miterlimit="10" width="25" height="25"/>
<rect x="200" y="75" fill="#006CA9" stroke="#294270" stroke-width="2" stroke-miterlimit="10" width="25" height="25"/>
<rect x="200" y="100" fill="#006CA9" stroke="#294270" stroke-width="2" stroke-miterlimit="10" width="25" height="25"/>
<rect x="200" y="125" fill="#006CA9" stroke="#294270" stroke-width="2" stroke-miterlimit="10" width="25" height="25"/>
<rect x="200" y="150" fill="#006CA9" stroke="#294270" stroke-width="2" stroke-miterlimit="10" width="25" height="25"/>
<rect x="200" y="175" fill="#006CA9" stroke="#294270" stroke-width="2" stroke-miterlimit="10" width="25" height="25"/>
<rect x="200" y="200" fill="#006CA9" stroke="#294270" stroke-width="2" stroke-miterlimit="10" width="25" height="25"/>
<rect x="225" y="25" fill="#006CA9" stroke="#294270" stroke-width="2" stroke-miterlimit="10" width="25" height="25"/>
<rect x="225" y="50.2" fill="#8FC7ED" stroke="#294270" stroke-width="2" stroke-miterlimit="10" width="25" height="25"/>
<rect x="225" y="75" fill="#006CA9" stroke="#294270" stroke-width="2" stroke-miterlimit="10" width="25" height="25"/>
<rect x="225" y="100" fill="#006CA9" stroke="#294270" stroke-width="2" stroke-miterlimit="10" width="25" height="25"/>
<rect x="225" y="125" fill="#006CA9" stroke="#294270" stroke-width="2" stroke-miterlimit="10" width="25" height="25"/>
<rect x="225" y="150" fill="#8FC7ED" stroke="#294270" stroke-width="2" stroke-miterlimit="10" width="25" height="25"/>
<rect x="225" y="175" fill="#8FC7ED" stroke="#294270" stroke-width="2" stroke-miterlimit="10" width="25" height="25"/>
<rect x="225" y="200" fill="#8FC7ED" stroke="#294270" stroke-width="2" stroke-miterlimit="10" width="25" height="25"/>
<rect x="200" y="50" fill="#8FC7ED" stroke="#294270" stroke-width="2" stroke-miterlimit="10" width="25" height="25"/>
<rect x="25" y="225" fill="#006CA9" stroke="#294270" stroke-width="2" stroke-miterlimit="10" width="25" height="25"/>
<rect x="50" y="225" fill="#006CA9" stroke="#294270" stroke-width="2" stroke-miterlimit="10" width="25" height="25"/>
<rect x="75" y="225" fill="#006CA9" stroke="#294270" stroke-width="2" stroke-miterlimit="10" width="25" height="25"/>
<rect x="100" y="225" fill="#006CA9" stroke="#294270" stroke-width="2" stroke-miterlimit="10" width="25" height="25"/>
<rect x="125" y="225" fill="#8FC7ED" stroke="#294270" stroke-width="2" stroke-miterlimit="10" width="25" height="25"/>
<rect x="150" y="225" fill="#8FC7ED" stroke="#294270" stroke-width="2" stroke-miterlimit="10" width="25" height="25"/>
<rect x="175" y="225" fill="#8FC7ED" stroke="#294270" stroke-width="2" stroke-miterlimit="10" width="25" height="25"/>
<rect x="200" y="225" fill="#8FC7ED" stroke="#294270" stroke-width="2" stroke-miterlimit="10" width="25" height="25"/>
<rect x="225" y="225" fill="#8FC7ED" stroke="#294270" stroke-width="2" stroke-miterlimit="10" width="25" height="25"/>
</svg>
